<svg xmlns="http://www.w3.org/2000/svg" viewBox="0 0 230 54.34"><defs><style>.cls-1{fill:#da2128;}</style></defs><title>logo</title><g id="Layer_2" data-name="Layer 2"><g id="Layer_1-2" data-name="Layer 1"><path class="cls-1" d="M136.53,54.34,124.77,20.73l-8,22.7a16.32,16.32,0,0,1-15.38,10.91H82.05A16.29,16.29,0,0,1,66.67,32.66L78.11,0h15L80.76,35.12a3.86,3.86,0,0,0,3.65,5.14h15.83a3.86,3.86,0,0,0,3.64-2.58L117.07,0h15.39l11.79,33.68L156,0h15l-15.2,43.43a16.32,16.32,0,0,1-15.38,10.91Z"/><path class="cls-1" d="M176,54.34l14.1-40.26H171.07L176,0h54l-1.11,3.17a16.3,16.3,0,0,1-15.38,10.91h-8.42L194.81,43.43a16.31,16.31,0,0,1-15.38,10.91Z"/><path class="cls-1" d="M16.32,54.34A16.28,16.28,0,0,1,.94,32.66L8.55,10.91A16.31,16.31,0,0,1,23.93,0H73.1L71.6,4.29a14.63,14.63,0,0,1-13.8,9.79H22.39L15,35.12a3.86,3.86,0,0,0,3.65,5.14H44.06l2.75-7.85h-17l.53-1.51A16.31,16.31,0,0,1,45.71,20H66.1L57.9,43.43A16.32,16.32,0,0,1,42.52,54.34Z"/></g></g></svg>